<svg xmlns="http://www.w3.org/2000/svg" width="256" height="256" viewBox="0 0 256 256">
  <rect width="256" height="256" rx="36" fill="#f7f9fb"/>
  <path d="M47 142c23-50 57-75 103-75 22 0 43 6 63 19-19-3-35-2-49 4-24 11-39 34-55 54-12 16-28 27-50 27-8 0-17-1-26-4 5-7 9-15 14-25z" fill="#1687a7"/>
  <path d="M54 172c31 19 63 16 96-9 17-13 31-29 45-48 9-12 20-20 34-24-9 30-25 55-48 74-38 31-80 34-127 7z" fill="#74c69d"/>
  <text x="128" y="218" text-anchor="middle" font-family="serif" font-size="24" font-style="italic" fill="#1b2430">ClearwaterOS</text>
</svg>
